<svg xmlns="http://www.w3.org/2000/svg" viewBox="0 0 78.07 61.47"><defs><style>.cls-1{fill:#1b1918;}.cls-1,.cls-2{fill-rule:evenodd;}.cls-2{fill:#ffec00;}</style></defs><g id="Camada_2" data-name="Camada 2"><g id="Camada_1-2" data-name="Camada 1"><g id="Layer1000"><g id="Layer1001"><path id="path4" class="cls-1" d="M4.13,23.1,35.43,1.6h0A10.9,10.9,0,0,1,41.33,0a10.23,10.23,0,0,1,5.6,1.6h0c4.3,3,9.6,6.1,14.1,9.2s9.2,6.3,14,9.6h0a6.7,6.7,0,0,1,3,4.4,5.74,5.74,0,0,1-1.9,4.9h0L45.33,57.9h0a12.79,12.79,0,0,1-7.4,3.5,9.92,9.92,0,0,1-7.4-1.9h0L1.93,34h0a5.59,5.59,0,0,1-1.8-5.5,8.8,8.8,0,0,1,4-5.4ZM36.63,2.4,5.33,24.1h0a7.35,7.35,0,0,0-3.1,4.3,4.21,4.21,0,0,0,1.4,4.2h0l28.5,25.3h0a7.65,7.65,0,0,0,5.8,1.5,10.08,10.08,0,0,0,5.8-2.7h0l30.9-28h0a4.57,4.57,0,0,0,1.5-3.8,5,5,0,0,0-2.3-3.5h0c-4.8-3.3-9.5-6.5-14-9.7S50,5.5,45.63,2.4h0a7.37,7.37,0,0,0-4.4-1.3,8.21,8.21,0,0,0-4.6,1.3Z"/><path id="path6" class="cls-2" d="M9,24.3q7.65-5.4,14.7-10.2c4.5-3.1,8.9-6.1,13.1-8.9a8.55,8.55,0,0,1,9.1-.1c3.8,2.7,7.7,5.4,11.7,8.2s8.1,5.6,12.3,8.5c2.7,1.9,3.1,5.1.7,7.3-3.8,3.5-7.8,7.2-11.9,11.1-4.3,4-8.9,8.3-13.6,12.8-3.2,3-8.3,3.6-11.3,1.1-4.6-3.7-9.1-7.4-13.5-11S11.73,36,7.63,32.6c-2.7-2.2-2-6,1.4-8.3Z"/><path id="path8" class="cls-1" d="M8.43,23.5l27.2-19h0A6.11,6.11,0,0,1,37,3.8a8.8,8.8,0,0,1,1.5-.5A9.67,9.67,0,0,1,46,4.5c3.8,2.7,8.4,5.4,12.3,8.1s8.1,5.6,12.2,8.5h0a5.24,5.24,0,0,1,1.1,1,4.44,4.44,0,0,1,.8,1.1,5.14,5.14,0,0,1-1.1,6.3l-26.6,24h0a10.1,10.1,0,0,1-1.6,1.3,7.57,7.57,0,0,1-1.8.9c-3.3,1.3-7,1.1-9.5-.9L6.73,33.2h0a3.78,3.78,0,0,1-1-1.2,3.79,3.79,0,0,1-.6-1.3c-.7-2.5.5-5.2,3.3-7.2Zm28.5-18L9.73,24.6c-2.1,1.5-3,3.5-2.5,5.3a2.35,2.35,0,0,0,.5,1,6.47,6.47,0,0,0,.8.9h0l25,21.4a7.1,7.1,0,0,0,7.1.7,9.14,9.14,0,0,0,1.4-.7,6.23,6.23,0,0,0,1.2-.9h0l26.7-23.8a3.75,3.75,0,0,0,.9-4.7,2.41,2.41,0,0,0-.6-.8,2.18,2.18,0,0,0-.9-.7h0c-4.2-2.9-8.3-5.7-12.3-8.5s-8.5-5.5-12.3-8.2A7,7,0,0,0,39,4.7a4.87,4.87,0,0,0-1.1.4,1.28,1.28,0,0,0-1,.4Z"/><path id="path10" class="cls-1" d="M25.93,32.6l12.7-.1c.8,0,2-1.3.2-1.9a24.9,24.9,0,0,1-5.3-.7c-8.7-2.3-7.7-11.6,1.9-13.4h17.1l-1.9,6.1H38.83c-2,.1-2.6,2.1.2,2.1,4.5.1,5.2,0,7,1.1,7.2,4.5,2.3,13.1-4.5,13L23,38.7Z"/></g></g></g></g></svg>