<svg xmlns="http://www.w3.org/2000/svg" viewBox="0 0 68.13 53.49"><defs><style>.cls-1{fill:#ffec00;}.cls-1,.cls-2{fill-rule:evenodd;}.cls-2{fill:#1b1918;}</style></defs><g id="Camada_2" data-name="Camada 2"><g id="Camada_1-2" data-name="Camada 1"><g id="Layer1000"><g id="Layer1001"><path id="path6" class="cls-1" d="M4.1,21.27q7.65-5.4,14.7-10.2C23.3,8,27.7,5,31.9,2.17a8.55,8.55,0,0,1,9.1-.1c3.8,2.7,7.7,5.4,11.7,8.2s8.1,5.6,12.3,8.5c2.7,1.9,3.1,5.1.7,7.3-3.8,3.5-7.8,7.2-11.9,11.1-4.3,4-8.9,8.3-13.6,12.8-3.2,3-8.3,3.6-11.3,1.1-4.6-3.7-9.1-7.4-13.5-11S6.8,33,2.7,29.57c-2.7-2.2-2-6,1.4-8.3Z"/><path id="path8" class="cls-2" d="M3.5,20.47l27.2-19h0a6.11,6.11,0,0,1,1.4-.7,8.8,8.8,0,0,1,1.5-.5,9.67,9.67,0,0,1,7.5,1.2c3.8,2.7,8.4,5.4,12.3,8.1s8.1,5.6,12.2,8.5h0a5.24,5.24,0,0,1,1.1,1,4.44,4.44,0,0,1,.8,1.1,5.14,5.14,0,0,1-1.1,6.3l-26.6,24h0a10.1,10.1,0,0,1-1.6,1.3,7.57,7.57,0,0,1-1.8.9c-3.3,1.3-7,1.1-9.5-.9L1.8,30.17h0A3.78,3.78,0,0,1,.8,29a3.79,3.79,0,0,1-.6-1.3c-.7-2.5.5-5.2,3.3-7.2ZM32,2.47,4.8,21.57c-2.1,1.5-3,3.5-2.5,5.3a2.35,2.35,0,0,0,.5,1,6.47,6.47,0,0,0,.8.9h0l25,21.4a7.1,7.1,0,0,0,7.1.7,9.14,9.14,0,0,0,1.4-.7,6.23,6.23,0,0,0,1.2-.9h0L65,25.47a3.75,3.75,0,0,0,.9-4.7,2.41,2.41,0,0,0-.6-.8,2.18,2.18,0,0,0-.9-.7h0c-4.2-2.9-8.3-5.7-12.3-8.5s-8.5-5.5-12.3-8.2a7,7,0,0,0-5.7-.9,4.87,4.87,0,0,0-1.1.4,1.28,1.28,0,0,0-1,.4Z"/><path id="path10" class="cls-2" d="M21,29.57l12.7-.1c.8,0,2-1.3.2-1.9a24.9,24.9,0,0,1-5.3-.7c-8.7-2.3-7.7-11.6,1.9-13.4H47.6l-1.9,6.1H33.9c-2,.1-2.6,2.1.2,2.1,4.5.1,5.2,0,7,1.1,7.2,4.5,2.3,13.1-4.5,13l-18.5-.1Z"/></g></g></g></g></svg>