<svg xmlns="http://www.w3.org/2000/svg" viewBox="0 0 136.1 91.1"><defs><style>.cls-1{fill:#1b1918;}.cls-1,.cls-2{fill-rule:evenodd;}.cls-2{fill:#ffec00;}</style></defs><g id="Camada_2" data-name="Camada 2"><g id="Camada_1-2" data-name="Camada 1"><g id="Layer1000"><g id="Layer1001"><path id="path4" class="cls-1" d="M33.5,23.1,64.8,1.6h0A10.9,10.9,0,0,1,70.7,0a10.23,10.23,0,0,1,5.6,1.6h0c4.3,3,9.6,6.1,14.1,9.2s9.2,6.3,14,9.6h0a6.7,6.7,0,0,1,3,4.4,5.74,5.74,0,0,1-1.9,4.9h0L74.7,57.9h0a12.79,12.79,0,0,1-7.4,3.5,9.92,9.92,0,0,1-7.4-1.9h0L31.3,34h0a5.59,5.59,0,0,1-1.8-5.5,8.8,8.8,0,0,1,4-5.4ZM66,2.4,34.7,24.1h0a7.35,7.35,0,0,0-3.1,4.3A4.21,4.21,0,0,0,33,32.6h0L61.5,57.9h0a7.65,7.65,0,0,0,5.8,1.5,10.08,10.08,0,0,0,5.8-2.7h0l30.9-28h0a4.57,4.57,0,0,0,1.5-3.8,5,5,0,0,0-2.3-3.5h0c-4.8-3.3-9.5-6.5-14-9.7S79.4,5.5,75,2.4h0a7.37,7.37,0,0,0-4.4-1.3A8.21,8.21,0,0,0,66,2.4Z"/><path id="path6" class="cls-2" d="M38.4,24.3q7.65-5.4,14.7-10.2C57.6,11,62,8,66.2,5.2a8.55,8.55,0,0,1,9.1-.1C79.1,7.8,83,10.5,87,13.3s8.1,5.6,12.3,8.5c2.7,1.9,3.1,5.1.7,7.3-3.8,3.5-7.8,7.2-11.9,11.1-4.3,4-8.9,8.3-13.6,12.8-3.2,3-8.3,3.6-11.3,1.1-4.6-3.7-9.1-7.4-13.5-11S41.1,36,37,32.6c-2.7-2.2-2-6,1.4-8.3Z"/><path id="path8" class="cls-1" d="M37.8,23.5,65,4.5h0a6.11,6.11,0,0,1,1.4-.7,8.8,8.8,0,0,1,1.5-.5,9.67,9.67,0,0,1,7.5,1.2c3.8,2.7,8.4,5.4,12.3,8.1s8.1,5.6,12.2,8.5h0a5.24,5.24,0,0,1,1.1,1,4.44,4.44,0,0,1,.8,1.1,5.14,5.14,0,0,1-1.1,6.3l-26.6,24h0a10.1,10.1,0,0,1-1.6,1.3,7.57,7.57,0,0,1-1.8.9c-3.3,1.3-7,1.1-9.5-.9L36.1,33.2h0a3.78,3.78,0,0,1-1-1.2,3.79,3.79,0,0,1-.6-1.3c-.7-2.5.5-5.2,3.3-7.2Zm28.5-18L39.1,24.6c-2.1,1.5-3,3.5-2.5,5.3a2.35,2.35,0,0,0,.5,1,6.47,6.47,0,0,0,.8.9h0l25,21.4a7.1,7.1,0,0,0,7.1.7,9.14,9.14,0,0,0,1.4-.7,6.23,6.23,0,0,0,1.2-.9h0L99.3,28.5a3.75,3.75,0,0,0,.9-4.7,2.41,2.41,0,0,0-.6-.8,2.18,2.18,0,0,0-.9-.7h0c-4.2-2.9-8.3-5.7-12.3-8.5S77.9,8.3,74.1,5.6a7,7,0,0,0-5.7-.9,4.87,4.87,0,0,0-1.1.4,1.28,1.28,0,0,0-1,.4Z"/><path id="path10" class="cls-1" d="M55.3,32.6,68,32.5c.8,0,2-1.3.2-1.9a24.9,24.9,0,0,1-5.3-.7c-8.7-2.3-7.7-11.6,1.9-13.4H81.9L80,22.6H68.2c-2,.1-2.6,2.1.2,2.1,4.5.1,5.2,0,7,1.1,7.2,4.5,2.3,13.1-4.5,13l-18.5-.1Z"/></g><g id="Layer1002"><path id="path13" class="cls-1" d="M2.5,85.5l11-.1c.7,0,1.8-1.1.2-1.6a25.25,25.25,0,0,1-4.6-.6c-7.5-2-6.7-10.2,1.6-11.7H25.5l-1.6,5.4H13.7c-1.7.1-2.2,1.8.2,1.8,3.9.1,4.5,0,6,1,6.2,4,2,11.5-3.9,11.4H0Z"/><path id="path15" class="cls-1" d="M31.5,85.8H42.6L41,91.1H23.1l6-19.6H47l-1.7,5.3h-11l-.7,2.3h9.9l-1.2,4H32.4Z"/><path id="path17" class="cls-1" d="M50.9,71.4H63c7.4,1,5.2,9.4-.7,11.2l3.4,8.5H58.6l-2.2-6.9a1,1,0,0,0-1.8,0l-2.2,6.9H44.9Zm4.1,8,1.2-4h3.9c2,.6.8,4-1,4Z"/><path id="path19" class="cls-1" d="M97.7,85.8h11.1l-1.6,5.3H89.3l6-19.6h17.9l-1.7,5.3h-11l-.7,2.3h9.9l-1.2,4H98.6Z"/><path id="path21" class="cls-1" d="M80.7,76.7h9.9l1.6-5.3H80.7c-13.9.3-16.6,16.9-6.3,19.6H86.1L89,81.6H82.1l-1.4,4.1c-9,.1-5.1-9,0-9Z"/><path id="path23" class="cls-1" d="M115.5,71.4l-1.6,5.3h5.8l-4.4,14.4h6.9l4.4-14.4h7.9l1.6-5.3Z"/></g></g></g></g></svg>