<?xml version="1.0" encoding="UTF-8" standalone="no"?>
<svg
   version="1.1"
   width="850.39368"
   height="708.66138"
   id="svg27"
   viewBox="0 0 850.39368 708.66138"
   sodipodi:docname="LOGO SERGET - CORELDRAW.cdr"
   xmlns:inkscape="http://www.inkscape.org/namespaces/inkscape"
   xmlns:sodipodi="http://sodipodi.sourceforge.net/DTD/sodipodi-0.dtd"
   xmlns="http://www.w3.org/2000/svg"
   xmlns:svg="http://www.w3.org/2000/svg">
  <defs
     id="defs31" />
  <sodipodi:namedview
     id="namedview29"
     pagecolor="#ffffff"
     bordercolor="#666666"
     borderopacity="1.0"
     inkscape:pageshadow="2"
     inkscape:pageopacity="0.0"
     inkscape:pagecheckerboard="0" />
  <g
     id="Layer1000">
    <g
       id="Layer1001">
      <path
         d="m 253.2288,216.1021 c 32.924,-22.5056 64.4066,-43.8529 94.4493,-63.9991 28.6349,-19.2028 56.1495,-37.3327 82.3787,-54.6735 16.1929,-10.7063 38.8169,-9.4124 53.9114,1.1898 23.8469,16.7505 50.7425,32.3581 75.5587,49.4965 25.1819,17.3915 50.8495,35.03 77.2244,52.9056 17.104,11.5923 19.7667,31.9508 5.1543,45.729 -23.6247,22.2773 -48.7803,44.0552 -74.5951,68.9236 -27.2663,26.2665 -59.0177,52.4122 -89.1842,81.8553 -20.2722,19.7857 -49.6958,27.055 -68.9069,11.4041 -29.5977,-24.114 -58.3053,-48.0918 -86.2993,-71.5576 -27.468,-23.025 -54.4445,-45.544 -80.5717,-67.9175 -16.3822,-14.0285 -11.1732,-38.2808 10.8804,-53.3562 z"
         style="fill:#ffffff;fill-rule:evenodd"
         id="path2" />
      <path
         d="M 250.4102,212.7398 421.929,94.8289 c 0,0 0,0 0,-0.0347 9.1633,-5.9281 20.7047,-9.0138 32.1149,-8.979 11.2328,-0.0695 22.3345,3.1197 30.7481,9.0137 0,0 0,0 0.0444,0 0,0 0,0 0,0 23.6999,16.6067 52.722,33.4028 77.4215,50.4791 24.9863,17.2756 50.529,34.7732 76.6077,52.5581 0,0 0,0 0.0444,0 9.5586,6.3792 15.1538,15.2894 16.3432,24.2691 1.3211,9.3607 -2.2026,19.0334 -10.3527,26.903 0,0 0,0 0,0 -0.0437,0 -0.0437,0 -0.0437,0 L 476.2684,403.5943 c 0,0.1043 0,0.1043 0,0.1043 -11.189,11.0595 -26.1667,17.5423 -40.7047,19.2064 -15.0658,1.5954 -29.8236,-1.4903 -40.5723,-10.331 -0.0444,0 -0.0444,0 -0.0444,0 0,0 0,0 0,0 L 238.0311,272.6831 c 0,0 0,0 0,0 -9.207,-8.0086 -11.9825,-18.9646 -9.7799,-30.0241 2.2907,-10.6779 9.8236,-21.5644 22.0265,-29.8156 0,0 0,0 0.0437,-0.1036 0,0 0,0 0.0888,0 z M 428.6248,99.5788 257.3702,218.5984 c 0,0 0,0 0,0 0,0 0,0 0,-0.0341 -9.4712,6.6219 -15.4624,15.1852 -17.1366,23.5059 -1.7622,8.6669 0.661,17.0571 7.8852,23.2625 0,0 0,0 0,0 l 156.3438,138.3659 c 0,0 0,0 0,0 -0.0444,0 -0.0444,0 -0.0444,0 8.3707,6.8644 19.824,9.4301 31.5865,8.1469 11.3653,-1.2825 22.9954,-6.448 31.8501,-15.0114 0,0 0,0 0,0 L 637.1041,243.5953 c 0,0 0,0 0,0 0,0.0695 0,0.0695 0,0.0695 6.3872,-6.1018 8.9428,-13.6948 8.1494,-21.0096 -0.8371,-7.1418 -5.1985,-14.1452 -12.6427,-19.1724 0,0 0,0 0,0 -26.2118,-17.9587 -51.8999,-35.6394 -76.9162,-53.0441 -24.7583,-17.2245 -53.8097,-34.1497 -77.6865,-50.8252 0,0 0,0 0,0 0,0 0,0 0.0881,-0.0347 -6.6958,-4.6803 -15.5062,-7.0382 -24.3172,-7.107 -9.0302,0.0347 -18.1054,2.3919 -25.1542,7.107 0,0 0,0 0,0 z"
         style="fill:#1b1918;fill-rule:evenodd"
         id="path4" />
      <path
         d="m 277.1063,219.2574 c 27.9786,-19.54 54.8152,-38.0771 80.6154,-55.7831 24.7711,-16.9982 48.6544,-33.1806 71.6745,-48.7454 14.2038,-9.6041 36.3901,-9.6415 49.6908,-0.2771 20.9721,14.765 42.2603,29.8264 63.8763,44.8624 21.9955,15.2991 44.4068,30.7504 67.18,46.3873 14.8907,10.2257 16.7275,28.0345 3.7444,40.0434 -20.9365,19.3657 -42.6865,39.58 -65.3738,60.8098 -23.699,22.1758 -48.5327,45.4893 -74.3169,69.9979 -17.2548,16.4007 -45.2953,19.4598 -61.762,6.171 C 387.3172,362.4533 362.6605,342.3818 338.5587,322.5374 314.9967,303.1363 291.7274,283.8855 269,264.917 c -14.4092,-12.0256 -10.4784,-32.6806 8.1063,-45.6596 z"
         style="fill:#ffec00;fill-rule:evenodd"
         id="path6" />
      <path
         d="M 273.9784,215.3396 423.1183,111.2973 c 0,0 0,0 0,0 0,0 0,0 0,0 2.3351,-1.5606 4.8456,-2.8779 7.4012,-3.9873 2.5548,-1.0747 5.2422,-2.0458 8.0613,-2.7388 14.1406,-3.363 30.2203,-1.2137 41.1014,6.414 20.8809,14.734 45.7367,29.5949 67.2464,44.5843 21.9664,15.3071 44.2722,30.7519 67.0477,46.3186 0,0 0,0 0,0 0,0 0,0 0,0 2.4231,1.5947 4.4045,3.4319 6.123,5.2698 1.8066,1.9068 3.3039,3.9866 4.5376,6.0671 6.2111,10.9553 4.4932,24.3727 -6.2561,34.2881 L 472.7659,378.9442 c 0,0 0,0 0,0 0,0 0,0 0,0 -2.7311,2.6005 -5.727,4.9237 -8.766,6.8992 -3.1721,2.011 -6.4766,3.6404 -9.956,5.0967 -17.8418,7.2808 -38.4585,5.9976 -51.8501,-4.9576 L 264.4627,267.4828 c 0,0 0,0 0,0 0,0 0,0 0,0 -2.2913,-1.9763 -4.1853,-4.0916 -5.6389,-6.3104 -1.4536,-2.3572 -2.6429,-4.7491 -3.2595,-7.2454 -3.4363,-12.9322 3.2158,-28.0478 18.4141,-38.5874 z M 429.8585,116.255 281.2907,221.1294 c -11.542,8.0781 -16.4313,19.3802 -13.6559,29.053 0.4841,1.9067 1.3212,3.7099 2.4662,5.374 1.1019,1.6989 2.5549,3.3971 4.2297,4.7499 0,0 0,0 0,0 0,0 0,0 0,0 l 137.1582,117.1823 c 10.0441,8.1122 25.4178,9.1528 38.8101,3.6745 2.5993,-0.9704 5.0217,-2.2529 7.4004,-3.7787 2.4675,-1.4216 4.6701,-3.1545 6.6085,-5.062 0,0 0,0 0,0 0,0 0,0 0,0 L 610.54,242.0007 c 8.0613,-7.3503 9.5593,-17.5083 4.8018,-25.7943 -0.8371,-1.5251 -1.8503,-3.1204 -3.2602,-4.5412 -1.3655,-1.4563 -2.9515,-2.7736 -4.6694,-4.0221 0,0 0,0 0,0 0,0 0,0 0,0 -22.8192,-15.7398 -45.3489,-31.2839 -67.3563,-46.6648 -21.6899,-15.1582 -46.3655,-30.1972 -67.3788,-45.0702 -8.2818,-5.8245 -20.4397,-7.4191 -31.1447,-4.7498 -2.0708,0.4504 -4.0966,1.1441 -6.0786,2.011 -2.0272,0.9016 -3.8774,1.8372 -5.5953,3.0857 0,0 0,0 0,0 0,0 0,0 0,0 z"
         style="fill:#1b1918;fill-rule:evenodd"
         id="path8" />
      <path
         d="m 369.6726,265.2154 69.6087,-0.3203 c 4.3833,0 11.1215,-7.0384 1.2413,-10.2812 -9.0466,-0.3182 -19.374,-1.3068 -29.2474,-3.8558 -47.7345,-12.3243 -42.3195,-63.4404 10.2823,-73.1313 l 93.4999,0.1524 -10.2557,33.4521 -64.6424,0.061 c -10.8995,0.5641 -14.0785,11.2896 1.1771,11.4852 24.7064,0.3174 28.7025,0.1927 38.3233,6.2014 39.6083,24.7371 12.5751,71.5184 -24.6893,71.2562 L 353.7363,299.525 Z"
         style="fill:#1b1918;fill-rule:evenodd"
         id="path10" />
    </g>
    <g
       id="Layer1002">
      <path
         d="m 80.5015,554.4503 60.0689,-0.281 c 3.7825,0 9.5972,-6.1736 1.0711,-9.018 -7.8067,-0.2791 -16.7188,-1.1463 -25.239,-3.3821 -41.1924,-10.8102 -36.5196,-55.6464 8.8731,-64.1467 l 80.8253,-0.009 -8.9898,29.4853 -55.7831,0.0535 c -9.4057,0.4948 -12.149,9.9026 1.0158,10.0742 21.3203,0.2784 24.7688,0.169 33.0711,5.4395 34.1799,21.698 10.8516,62.7319 -21.3056,62.5019 H 66.4695 Z"
         style="fill:#1b1918;fill-rule:evenodd"
         id="path13" />
      <path
         d="m 239.6751,556.2298 h 60.6062 l -8.9022,28.938 h -97.9836 l 33.1376,-107.5451 h 98.2344 l -9.2088,28.9337 h -60.4762 l -3.8603,12.5541 h 54.0514 l -6.7003,21.8353 h -54.1459 z"
         style="fill:#1b1918;fill-rule:evenodd"
         id="path15" />
      <path
         d="m 345.6096,477.613 h 66.4199 c 40.2724,5.351 28.6326,51.2866 -4.0038,61.0767 l 18.5378,46.4774 H 387.696 l -12.1689,-37.7544 c -1.3614,-3.6529 -7.3191,-4.3437 -9.7928,-0.0685 l -11.9848,37.8229 h -41.1373 z m 22.7544,43.8931 6.8406,-22.0189 21.1703,-0.004 c 10.8036,3.1974 4.5042,22.0234 -5.3702,22.0234 z"
         style="fill:#1b1918;fill-rule:evenodd"
         id="path17" />
      <path
         d="m 602.1602,556.2298 h 60.6062 l -8.9022,28.938 h -97.9836 l 33.1376,-107.5451 h 98.2344 l -9.2088,28.9337 h -60.4761 l -3.8604,12.5541 h 54.0514 l -6.7003,21.8353 h -54.1459 z"
         style="fill:#1b1918;fill-rule:evenodd"
         id="path19" />
      <path
         d="m 508.7819,506.5563 h 53.9802 l 8.8991,-28.9336 h -62.8793 c -76.2893,1.8095 -90.78,92.6453 -34.4926,107.5446 h 64.1832 l 15.8147,-51.4157 h -37.831 l -7.8555,22.4778 c -49.0111,0 -27.7349,-49.6731 0.1812,-49.6731 z"
         style="fill:#1b1918;fill-rule:evenodd"
         id="path21" />
      <path
         d="m 699.718,477.6227 -8.8016,28.9337 h 31.6046 l -24.1797,78.6114 h 37.8466 l 24.1796,-78.6114 h 43.1641 l 8.8991,-28.9337 z"
         style="fill:#1b1918;fill-rule:evenodd"
         id="path23" />
    </g>
  </g>
</svg>
