<?xml version="1.0" encoding="utf-8"?>
<!-- Generator: Adobe Illustrator 26.2.1, SVG Export Plug-In . SVG Version: 6.00 Build 0)  -->
<svg version="1.1" id="Camada_1" xmlns="http://www.w3.org/2000/svg" xmlns:xlink="http://www.w3.org/1999/xlink" x="0px" y="0px"
	 viewBox="0 0 1920 1080" style="enable-background:new 0 0 1920 1080;" xml:space="preserve">
<style type="text/css">
	.st0{fill-rule:evenodd;clip-rule:evenodd;fill:#1B1918;}
	.st1{fill-rule:evenodd;clip-rule:evenodd;fill:#FFEC00;}
	.st2{display:none;}
	.st3{display:inline;fill-rule:evenodd;clip-rule:evenodd;fill:#1B1918;}
</style>
<g id="Layer1000">
	<g id="Layer1001">
		<path id="path4" class="st0" d="M455.5,255.4l31.3-21.5l0,0c1.7-1.1,3.8-1.6,5.9-1.6s4.1,0.6,5.6,1.6l0,0l0,0
			c4.3,3,9.6,6.1,14.1,9.2c4.6,3.2,9.2,6.3,14,9.6l0,0c1.7,1.2,2.8,2.8,3,4.4c0.2,1.7-0.4,3.5-1.9,4.9l0,0l0,0l-30.8,28.2l0,0
			c-2,2-4.8,3.2-7.4,3.5c-2.8,0.3-5.4-0.3-7.4-1.9l0,0l0,0l-28.6-25.5l0,0c-1.7-1.5-2.2-3.5-1.8-5.5
			C451.9,258.9,453.2,256.9,455.5,255.4L455.5,255.4L455.5,255.4z M488,234.7l-31.3,21.7l0,0l0,0c-1.7,1.2-2.8,2.8-3.1,4.3
			c-0.3,1.6,0.1,3.1,1.4,4.2l0,0l28.5,25.3l0,0l0,0c1.5,1.3,3.6,1.7,5.8,1.5c2.1-0.2,4.2-1.2,5.8-2.7l0,0l30.9-28l0,0l0,0
			c1.2-1.1,1.6-2.5,1.5-3.8c-0.2-1.3-0.9-2.6-2.3-3.5l0,0c-4.8-3.3-9.5-6.5-14-9.7c-4.5-3.1-9.8-6.2-14.2-9.3l0,0l0,0
			c-1.2-0.9-2.8-1.3-4.4-1.3C491,233.4,489.3,233.8,488,234.7L488,234.7L488,234.7z"/>
		<path id="path6" class="st1" d="M460.4,256.6c5.1-3.6,10-7,14.7-10.2c4.5-3.1,8.9-6.1,13.1-8.9c2.6-1.8,6.6-1.8,9.1-0.1
			c3.8,2.7,7.7,5.4,11.7,8.2c4,2.8,8.1,5.6,12.3,8.5c2.7,1.9,3.1,5.1,0.7,7.3c-3.8,3.5-7.8,7.2-11.9,11.1c-4.3,4-8.9,8.3-13.6,12.8
			c-3.2,3-8.3,3.6-11.3,1.1c-4.6-3.7-9.1-7.4-13.5-11c-4.3-3.5-8.6-7.1-12.7-10.5C456.3,262.7,457,258.9,460.4,256.6L460.4,256.6z"
			/>
		<path id="path8" class="st0" d="M459.8,255.8l27.2-19l0,0l0,0c0.4-0.3,0.9-0.5,1.4-0.7s1-0.4,1.5-0.5c2.6-0.6,5.5-0.2,7.5,1.2
			c3.8,2.7,8.4,5.4,12.3,8.1c4,2.8,8.1,5.6,12.2,8.5l0,0l0,0c0.4,0.3,0.8,0.6,1.1,1c0.3,0.3,0.6,0.7,0.8,1.1c1.1,2,0.8,4.4-1.1,6.3
			l-26.6,24l0,0l0,0c-0.5,0.5-1,0.9-1.6,1.3s-1.2,0.7-1.8,0.9c-3.3,1.3-7,1.1-9.5-0.9l-25.1-21.6l0,0l0,0c-0.4-0.4-0.8-0.7-1-1.2
			c-0.3-0.4-0.5-0.9-0.6-1.3C455.8,260.5,457,257.8,459.8,255.8L459.8,255.8z M488.3,237.8l-27.2,19.1c-2.1,1.5-3,3.5-2.5,5.3
			c0.1,0.3,0.2,0.7,0.5,1c0.2,0.3,0.5,0.6,0.8,0.9l0,0l0,0l25,21.4c1.8,1.5,4.6,1.7,7.1,0.7c0.5-0.2,0.9-0.4,1.4-0.7
			c0.5-0.3,0.9-0.6,1.2-0.9l0,0l0,0l26.7-23.8c1.5-1.3,1.7-3.2,0.9-4.7c-0.2-0.3-0.3-0.6-0.6-0.8c-0.2-0.3-0.5-0.5-0.9-0.7l0,0l0,0
			c-4.2-2.9-8.3-5.7-12.3-8.5s-8.5-5.5-12.3-8.2c-1.5-1.1-3.7-1.4-5.7-0.9c-0.4,0.1-0.7,0.2-1.1,0.4
			C488.9,237.4,488.6,237.5,488.3,237.8L488.3,237.8L488.3,237.8L488.3,237.8z"/>
		<path id="path10" class="st0" d="M477.3,264.9l12.7-0.1c0.8,0,2-1.3,0.2-1.9c-1.7-0.1-3.5-0.2-5.3-0.7c-8.7-2.3-7.7-11.6,1.9-13.4
			h17.1l-1.9,6.1h-11.8c-2,0.1-2.6,2.1,0.2,2.1c4.5,0.1,5.2,0,7,1.1c7.2,4.5,2.3,13.1-4.5,13l-18.5-0.1L477.3,264.9z"/>
	</g>
	<g id="Layer1002" class="st2">
		<path id="path13" class="st3" d="M424.5,317.8l11-0.1c0.7,0,1.8-1.1,0.2-1.6c-1.4-0.1-3.1-0.2-4.6-0.6c-7.5-2-6.7-10.2,1.6-11.7
			h14.8l-1.6,5.4h-10.2c-1.7,0.1-2.2,1.8,0.2,1.8c3.9,0.1,4.5,0,6,1c6.2,4,2,11.5-3.9,11.4h-16L424.5,317.8z"/>
		<path id="path15" class="st3" d="M453.5,318.1h11.1l-1.6,5.3h-17.9l6-19.6H469l-1.7,5.3h-11l-0.7,2.3h9.9l-1.2,4h-9.9L453.5,318.1
			z"/>
		<path id="path17" class="st3" d="M472.9,303.7H485c7.4,1,5.2,9.4-0.7,11.2l3.4,8.5h-7.1l-2.2-6.9c-0.2-0.7-1.3-0.8-1.8,0l-2.2,6.9
			h-7.5L472.9,303.7z M477,311.7l1.2-4h3.9c2,0.6,0.8,4-1,4H477z"/>
		<path id="path19" class="st3" d="M519.7,318.1h11.1l-1.6,5.3h-17.9l6-19.6h17.9l-1.7,5.3h-11l-0.7,2.3h9.9l-1.2,4h-9.9
			L519.7,318.1z"/>
		<path id="path21" class="st3" d="M502.7,309h9.9l1.6-5.3h-11.5c-13.9,0.3-16.6,16.9-6.3,19.6h11.7l2.9-9.4h-6.9l-1.4,4.1
			C493.7,318.1,497.6,309,502.7,309L502.7,309z"/>
		<path id="path23" class="st3" d="M537.5,303.7l-1.6,5.3h5.8l-4.4,14.4h6.9l4.4-14.4h7.9l1.6-5.3H537.5z"/>
	</g>
</g>
</svg>
