<?xml version="1.0" encoding="utf-8"?>
<!-- Generator: Adobe Illustrator 26.2.1, SVG Export Plug-In . SVG Version: 6.00 Build 0)  -->
<svg version="1.1"
	 id="svg27" sodipodi:docname="LOGO SERGET - CORELDRAW.cdr" xmlns:inkscape="http://www.inkscape.org/namespaces/inkscape" xmlns:sodipodi="http://sodipodi.sourceforge.net/DTD/sodipodi-0.dtd" xmlns:svg="http://www.w3.org/2000/svg"
	 xmlns="http://www.w3.org/2000/svg" xmlns:xlink="http://www.w3.org/1999/xlink" x="0px" y="0px" viewBox="0 0 850.4 708.7"
	 style="enable-background:new 0 0 850.4 708.7;" xml:space="preserve">
<style type="text/css">
	.st0{fill-rule:evenodd;clip-rule:evenodd;fill:#FFFFFF;}
	.st1{fill-rule:evenodd;clip-rule:evenodd;fill:#1B1918;}
	.st2{fill-rule:evenodd;clip-rule:evenodd;fill:#FFEC00;}
	.st3{display:none;}
	.st4{display:inline;fill-rule:evenodd;clip-rule:evenodd;fill:#1B1918;}
</style>
<sodipodi:namedview  bordercolor="#666666" borderopacity="1.0" id="namedview29" inkscape:pagecheckerboard="0" inkscape:pageopacity="0.0" inkscape:pageshadow="2" pagecolor="#ffffff">
	</sodipodi:namedview>
<g id="Layer1000">
	<g id="Layer1001">
		<path id="path2" class="st0" d="M253.2,216.1c32.9-22.5,64.4-43.9,94.4-64c28.6-19.2,56.1-37.3,82.4-54.7
			c16.2-10.7,38.8-9.4,53.9,1.2c23.8,16.8,50.7,32.4,75.6,49.5c25.2,17.4,50.8,35,77.2,52.9c17.1,11.6,19.8,32,5.2,45.7
			c-23.6,22.3-48.8,44.1-74.6,68.9c-27.3,26.3-59,52.4-89.2,81.9c-20.3,19.8-49.7,27.1-68.9,11.4c-29.6-24.1-58.3-48.1-86.3-71.6
			c-27.5-23-54.4-45.5-80.6-67.9C226,255.4,231.2,231.2,253.2,216.1L253.2,216.1z"/>
		<path id="path4" class="st1" d="M250.4,212.7L421.9,94.8c0,0,0,0,0,0c9.2-5.9,20.7-9,32.1-9c11.2-0.1,22.3,3.1,30.7,9c0,0,0,0,0,0
			l0,0c23.7,16.6,52.7,33.4,77.4,50.5c25,17.3,50.5,34.8,76.6,52.6c0,0,0,0,0,0c9.6,6.4,15.2,15.3,16.3,24.3
			c1.3,9.4-2.2,19-10.4,26.9l0,0c0,0,0,0,0,0L476.3,403.6c0,0.1,0,0.1,0,0.1c-11.2,11.1-26.2,17.5-40.7,19.2
			c-15.1,1.6-29.8-1.5-40.6-10.3c0,0,0,0,0,0l0,0L238,272.7l0,0c-9.2-8-12-19-9.8-30c2.3-10.7,9.8-21.6,22-29.8
			C250.3,212.8,250.3,212.8,250.4,212.7C250.3,212.7,250.3,212.7,250.4,212.7z M428.6,99.6l-171.3,119l0,0c0,0,0,0,0,0
			c-9.5,6.6-15.5,15.2-17.1,23.5c-1.8,8.7,0.7,17.1,7.9,23.3l0,0l156.3,138.4l0,0c0,0,0,0,0,0c8.4,6.9,19.8,9.4,31.6,8.1
			c11.4-1.3,23-6.4,31.9-15l0,0l169.2-153.2l0,0c0,0.1,0,0.1,0,0.1c6.4-6.1,8.9-13.7,8.1-21c-0.8-7.1-5.2-14.1-12.6-19.2l0,0
			c-26.2-18-51.9-35.6-76.9-53c-24.8-17.2-53.8-34.1-77.7-50.8l0,0c0,0,0,0,0.1,0c-6.7-4.7-15.5-7-24.3-7.1
			C444.7,92.5,435.7,94.9,428.6,99.6L428.6,99.6L428.6,99.6z"/>
		<path id="path6" class="st2" d="M277.1,219.3c28-19.5,54.8-38.1,80.6-55.8c24.8-17,48.7-33.2,71.7-48.7
			c14.2-9.6,36.4-9.6,49.7-0.3c21,14.8,42.3,29.8,63.9,44.9c22,15.3,44.4,30.8,67.2,46.4c14.9,10.2,16.7,28,3.7,40
			c-20.9,19.4-42.7,39.6-65.4,60.8c-23.7,22.2-48.5,45.5-74.3,70c-17.3,16.4-45.3,19.5-61.8,6.2c-25.1-20.3-49.8-40.3-73.9-60.2
			c-23.6-19.4-46.8-38.7-69.6-57.6C254.6,252.9,258.5,232.2,277.1,219.3L277.1,219.3z"/>
		<path id="path8" class="st1" d="M274,215.3l149.1-104l0,0l0,0c2.3-1.6,4.8-2.9,7.4-4c2.6-1.1,5.2-2,8.1-2.7
			c14.1-3.4,30.2-1.2,41.1,6.4c20.9,14.7,45.7,29.6,67.2,44.6c22,15.3,44.3,30.8,67,46.3l0,0l0,0c2.4,1.6,4.4,3.4,6.1,5.3
			c1.8,1.9,3.3,4,4.5,6.1c6.2,11,4.5,24.4-6.3,34.3L472.8,378.9l0,0l0,0c-2.7,2.6-5.7,4.9-8.8,6.9c-3.2,2-6.5,3.6-10,5.1
			c-17.8,7.3-38.5,6-51.9-5L264.5,267.5l0,0l0,0c-2.3-2-4.2-4.1-5.6-6.3c-1.5-2.4-2.6-4.7-3.3-7.2C252.1,241,258.8,225.9,274,215.3
			L274,215.3z M429.9,116.3L281.3,221.1c-11.5,8.1-16.4,19.4-13.7,29.1c0.5,1.9,1.3,3.7,2.5,5.4c1.1,1.7,2.6,3.4,4.2,4.7l0,0l0,0
			l137.2,117.2c10,8.1,25.4,9.2,38.8,3.7c2.6-1,5-2.3,7.4-3.8c2.5-1.4,4.7-3.2,6.6-5.1l0,0l0,0L610.5,242c8.1-7.4,9.6-17.5,4.8-25.8
			c-0.8-1.5-1.9-3.1-3.3-4.5c-1.4-1.5-3-2.8-4.7-4l0,0l0,0c-22.8-15.7-45.3-31.3-67.4-46.7c-21.7-15.2-46.4-30.2-67.4-45.1
			c-8.3-5.8-20.4-7.4-31.1-4.7c-2.1,0.5-4.1,1.1-6.1,2C433.4,114.1,431.6,115,429.9,116.3L429.9,116.3L429.9,116.3L429.9,116.3z"/>
		<path id="path10" class="st1" d="M369.7,265.2l69.6-0.3c4.4,0,11.1-7,1.2-10.3c-9-0.3-19.4-1.3-29.2-3.9
			c-47.7-12.3-42.3-63.4,10.3-73.1l93.5,0.2l-10.3,33.5l-64.6,0.1c-10.9,0.6-14.1,11.3,1.2,11.5c24.7,0.3,28.7,0.2,38.3,6.2
			c39.6,24.7,12.6,71.5-24.7,71.3l-101.2-0.7L369.7,265.2z"/>
	</g>
	<g id="Layer1002" class="st3">
		<path id="path13" class="st4" d="M80.5,554.5l60.1-0.3c3.8,0,9.6-6.2,1.1-9c-7.8-0.3-16.7-1.1-25.2-3.4
			c-41.2-10.8-36.5-55.6,8.9-64.1l80.8,0l-9,29.5l-55.8,0.1c-9.4,0.5-12.1,9.9,1,10.1c21.3,0.3,24.8,0.2,33.1,5.4
			c34.2,21.7,10.9,62.7-21.3,62.5H66.5L80.5,554.5z"/>
		<path id="path15" class="st4" d="M239.7,556.2h60.6l-8.9,28.9h-98l33.1-107.5h98.2l-9.2,28.9h-60.5l-3.9,12.6h54.1l-6.7,21.8
			h-54.1L239.7,556.2z"/>
		<path id="path17" class="st4" d="M345.6,477.6H412c40.3,5.4,28.6,51.3-4,61.1l18.5,46.5h-38.9l-12.2-37.8
			c-1.4-3.7-7.3-4.3-9.8-0.1l-12,37.8h-41.1L345.6,477.6z M368.4,521.5l6.8-22l21.2,0c10.8,3.2,4.5,22-5.4,22L368.4,521.5z"/>
		<path id="path19" class="st4" d="M602.2,556.2h60.6l-8.9,28.9h-98L589,477.6h98.2l-9.2,28.9h-60.5l-3.9,12.6h54.1l-6.7,21.8h-54.1
			L602.2,556.2z"/>
		<path id="path21" class="st4" d="M508.8,506.6h54l8.9-28.9h-62.9c-76.3,1.8-90.8,92.6-34.5,107.5h64.2l15.8-51.4h-37.8l-7.9,22.5
			C459.6,556.2,480.9,506.6,508.8,506.6L508.8,506.6z"/>
		<path id="path23" class="st4" d="M699.7,477.6l-8.8,28.9h31.6l-24.2,78.6h37.8l24.2-78.6h43.2l8.9-28.9L699.7,477.6z"/>
	</g>
</g>
</svg>
